<svg data-v-423bf9ae="" xmlns="http://www.w3.org/2000/svg" viewBox="0 0 320 90" class="iconLeft"><!----><!----><!----><g data-v-423bf9ae="" id="4680e4e1-42ff-4d93-9605-9074efc7fbb8" fill="#0E261C" transform="matrix(5.8715596199035645,0,0,5.8715596199035645,105.85122680664062,-4.495412826538086)"><path d="M0.63 8.43L0.63 8.43L0.63 8.43Q0.63 6.04 1.87 4.68L1.87 4.68L1.87 4.68Q3.10 3.32 5.30 3.32L5.30 3.32L5.30 3.32Q6.62 3.32 7.46 3.78L7.46 3.78L7.46 3.78Q8.29 4.23 8.68 4.85L8.68 4.85L8.68 4.85Q8.92 5.23 8.67 5.40L8.67 5.40L8.16 5.76L8.16 5.76Q7.91 5.93 7.66 5.54L7.66 5.54L7.66 5.54Q7.45 5.24 6.88 4.81L6.88 4.81L6.88 4.81Q6.32 4.39 5.37 4.39L5.37 4.39L5.37 4.39Q3.70 4.39 2.86 5.45L2.86 5.45L2.86 5.45Q2.03 6.51 2.03 8.43L2.03 8.43L2.03 8.43Q2.03 10.34 2.84 11.41L2.84 11.41L2.84 11.41Q3.66 12.47 5.44 12.47L5.44 12.47L5.44 12.47Q6.33 12.47 6.99 12.25L6.99 12.25L6.99 12.25Q7.65 12.04 7.92 11.66L7.92 11.66L7.92 9.84L5.89 9.84L5.89 9.84Q5.51 9.84 5.51 9.54L5.51 9.54L5.51 9.03L5.51 9.03Q5.51 8.72 5.89 8.72L5.89 8.72L8.85 8.72L8.85 8.72Q9.23 8.72 9.23 9.03L9.23 9.03L9.23 12.26L9.23 12.26Q8.39 12.87 7.56 13.20L7.56 13.20L7.56 13.20Q6.73 13.54 5.37 13.54L5.37 13.54L5.37 13.54Q3.12 13.54 1.87 12.18L1.87 12.18L1.87 12.18Q0.63 10.82 0.63 8.43ZM11.92 13.33L11.33 13.33L11.33 13.33Q11.02 13.33 11.02 13.02L11.02 13.02L11.02 6.46L11.02 6.46Q11.02 6.15 11.33 6.15L11.33 6.15L11.90 6.15L11.90 6.15Q12.21 6.15 12.21 6.46L12.21 6.46L12.21 7.28L12.24 7.28L12.24 7.28Q12.56 6.67 13.01 6.35L13.01 6.35L13.01 6.35Q13.45 6.04 14.12 6.04L14.12 6.04L14.12 6.04Q14.55 6.04 14.73 6.11L14.73 6.11L14.73 6.11Q14.89 6.17 14.85 6.32L14.85 6.32L14.69 6.88L14.69 6.88Q14.66 7 14.51 6.97L14.51 6.97L14.51 6.97Q14.27 6.92 14.06 6.92L14.06 6.92L14.06 6.92Q13.26 6.92 12.74 7.65L12.74 7.65L12.74 7.65Q12.22 8.37 12.22 9.61L12.22 9.61L12.22 13.02L12.22 13.02Q12.22 13.33 11.92 13.33L11.92 13.33ZM15.57 9.74L15.57 9.74L15.57 9.74Q15.57 8.13 16.42 7.09L16.42 7.09L16.42 7.09Q17.27 6.04 18.91 6.04L18.91 6.04L18.91 6.04Q20.55 6.04 21.40 7.09L21.40 7.09L21.40 7.09Q22.25 8.13 22.25 9.74L22.25 9.74L22.25 9.74Q22.25 11.35 21.40 12.40L21.40 12.40L21.40 12.40Q20.55 13.45 18.91 13.45L18.91 13.45L18.91 13.45Q17.27 13.45 16.42 12.40L16.42 12.40L16.42 12.40Q15.57 11.35 15.57 9.74ZM16.84 9.74L16.84 9.74L16.84 9.74Q16.84 11.18 17.40 11.87L17.40 11.87L17.40 11.87Q17.97 12.56 18.91 12.56L18.91 12.56L18.91 12.56Q19.84 12.56 20.41 11.87L20.41 11.87L20.41 11.87Q20.98 11.18 20.98 9.74L20.98 9.74L20.98 9.74Q20.98 8.31 20.41 7.62L20.41 7.62L20.41 7.62Q19.84 6.92 18.91 6.92L18.91 6.92L18.91 6.92Q17.97 6.92 17.40 7.62L17.40 7.62L17.40 7.62Q16.84 8.31 16.84 9.74ZM25.38 12.91L23.14 6.49L23.14 6.49Q23.02 6.15 23.32 6.15L23.32 6.15L24.07 6.15L24.07 6.15Q24.29 6.15 24.38 6.42L24.38 6.42L25.83 10.93L25.83 10.93Q26.00 11.48 26.07 11.69L26.07 11.69L26.07 11.69Q26.13 11.90 26.19 12.21L26.19 12.21L26.22 12.21L26.22 12.21Q26.27 11.90 26.34 11.69L26.34 11.69L26.34 11.69Q26.40 11.48 26.58 10.93L26.58 10.93L28.03 6.42L28.03 6.42Q28.12 6.15 28.33 6.15L28.33 6.15L29.08 6.15L29.08 6.15Q29.38 6.15 29.26 6.49L29.26 6.49L27.02 12.91L27.02 12.91Q26.88 13.33 26.65 13.33L26.65 13.33L25.75 13.33L25.75 13.33Q25.53 13.33 25.38 12.91L25.38 12.91ZM30.15 9.74L30.15 9.74L30.15 9.74Q30.15 8.05 31.00 7.04L31.00 7.04L31.00 7.04Q31.85 6.04 33.43 6.04L33.43 6.04L33.43 6.04Q34.74 6.04 35.60 6.96L35.60 6.96L35.60 6.96Q36.47 7.88 36.47 9.89L36.47 9.89L36.47 9.89Q36.47 10.20 36.19 10.20L36.19 10.20L31.42 10.20L31.42 10.20Q31.54 11.52 32.14 12.03L32.14 12.03L32.14 12.03Q32.73 12.55 33.48 12.55L33.48 12.55L33.48 12.55Q34.28 12.55 34.70 12.28L34.70 12.28L34.70 12.28Q35.12 12.02 35.32 11.76L35.32 11.76L35.32 11.76Q35.54 11.47 35.75 11.65L35.75 11.65L36.15 12.00L36.15 12.00Q36.31 12.13 36.15 12.37L36.15 12.37L36.15 12.37Q36.02 12.57 35.41 13.01L35.41 13.01L35.41 13.01Q34.79 13.45 33.48 13.45L33.48 13.45L33.48 13.45Q31.77 13.45 30.96 12.44L30.96 12.44L30.96 12.44Q30.15 11.44 30.15 9.74ZM31.40 9.31L31.40 9.31L35.26 9.31L35.26 9.31Q35.23 8.35 34.77 7.63L34.77 7.63L34.77 7.63Q34.30 6.91 33.40 6.91L33.40 6.91L33.40 6.91Q32.61 6.91 32.05 7.44L32.05 7.44L32.05 7.44Q31.50 7.97 31.40 9.31Z"></path></g><defs data-v-423bf9ae=""><linearGradient data-v-423bf9ae="" gradientTransform="rotate(25)" id="a26fb313-899c-472b-9bc7-414615df38a1" x1="0%" y1="0%" x2="100%" y2="0%"><stop data-v-423bf9ae="" offset="0%" style="stop-color: rgb(10, 55, 50); stop-opacity: 1;"></stop><stop data-v-423bf9ae="" offset="100%" style="stop-color: rgb(85, 195, 136); stop-opacity: 1;"></stop></linearGradient></defs><g data-v-423bf9ae="" id="5ff1f1ab-abaa-46da-bfe3-a04f1a80cfb5" transform="matrix(1.071229338645935,0,0,1.071229338645935,-8.354023933410645,-7.566496849060059)" stroke="none" fill="url(#a26fb313-899c-472b-9bc7-414615df38a1)"><path d="M30.923 7.952c17.592 13.723 16.728 26.5 5.733 49.673-2.6-3.144-16.193-15.334-10.434-32.496 4.748-14.147 4.701-17.177 4.701-17.177zM39.983 60.619s27.776-16.885 51.777 3.274c0 0-23.861 12.148-36.348 3.979-12.484-8.172-15.429-7.253-15.429-7.253z"></path><path d="M45.435 49.984c-2.528 3.677-16.5 18.565-37.263 37.975l1.121 4.01s24.2-28.532 37.117-40.066l-.007-.026 13.193-1.212c18.1-1.662 20.21-17.711 26.045-29.101-30.953-.856-32.874 6.839-40.206 28.42z"></path></g><!----></svg>