<svg data-v-fde0c5aa="" xmlns="http://www.w3.org/2000/svg" viewBox="0 0 300 300" class="icon"><!----><defs data-v-fde0c5aa=""><!----></defs><rect data-v-fde0c5aa="" fill="#EAF2EF" fill-opacity="0.0" x="0" y="0" width="300px" height="300px" class="logo-background-square"></rect><!----><defs data-v-fde0c5aa=""><linearGradient data-v-fde0c5aa="" gradientTransform="rotate(25)" id="7e3419ce-3a31-4166-b1bf-92b3c65895fb" x1="0%" y1="0%" x2="100%" y2="0%"><stop data-v-fde0c5aa="" offset="0%" stop-color="#0A3732" stop-opacity="1"></stop><stop data-v-fde0c5aa="" offset="100%" stop-color="#55C388" stop-opacity="1"></stop></linearGradient></defs><g data-v-fde0c5aa="" id="8d97dc95-663e-4525-8670-06b5c8bbdcb4" fill="url(#7e3419ce-3a31-4166-b1bf-92b3c65895fb)" stroke="none" transform="matrix(2.618560552597046,0,0,2.618560552597046,19.15891761205134,19.1742607401897)"><path d="M30.923 7.952c17.592 13.723 16.728 26.5 5.733 49.673-2.6-3.144-16.193-15.334-10.434-32.496 4.748-14.147 4.701-17.177 4.701-17.177zM39.983 60.619s27.776-16.885 51.777 3.274c0 0-23.861 12.148-36.348 3.979-12.484-8.172-15.429-7.253-15.429-7.253z"></path><path d="M45.435 49.984c-2.528 3.677-16.5 18.565-37.263 37.975l1.121 4.01s24.2-28.532 37.117-40.066l-.007-.026 13.193-1.212c18.1-1.662 20.21-17.711 26.045-29.101-30.953-.856-32.874 6.839-40.206 28.42z"></path></g><!----></svg>